<?xml version="1.0" encoding="UTF-8" standalone="no"?>
<svg
   xmlns:dc="http://purl.org/dc/elements/1.1/"
   xmlns:cc="http://creativecommons.org/ns#"
   xmlns:rdf="http://www.w3.org/1999/02/22-rdf-syntax-ns#"
   xmlns:svg="http://www.w3.org/2000/svg"
   xmlns="http://www.w3.org/2000/svg"
   xmlns:sodipodi="http://sodipodi.sourceforge.net/DTD/sodipodi-0.dtd"
   xmlns:inkscape="http://www.inkscape.org/namespaces/inkscape"
   viewBox="0 0 400 400"
   height="400"
   width="400"
   xml:space="preserve"
   version="1.1"
   id="svg2"
   inkscape:version="0.91 r13725"
   sodipodi:docname="apc.svg"><sodipodi:namedview
     pagecolor="#ffffff"
     bordercolor="#666666"
     borderopacity="1"
     objecttolerance="10"
     gridtolerance="10"
     guidetolerance="10"
     inkscape:pageopacity="0"
     inkscape:pageshadow="2"
     inkscape:window-width="1006"
     inkscape:window-height="639"
     id="namedview82"
     showgrid="false"
     fit-margin-top="0"
     fit-margin-left="0"
     fit-margin-right="0"
     fit-margin-bottom="0"
     inkscape:zoom="0.99460029"
     inkscape:cx="79.727864"
     inkscape:cy="193.55995"
     inkscape:window-x="0"
     inkscape:window-y="0"
     inkscape:window-maximized="0"
     inkscape:current-layer="svg2" /><metadata
     id="metadata8"><rdf:RDF><cc:Work
         rdf:about=""><dc:format>image/svg+xml</dc:format><dc:type
           rdf:resource="http://purl.org/dc/dcmitype/StillImage" /><dc:title></dc:title></cc:Work></rdf:RDF></metadata><defs
     id="defs6" /><g
     transform="matrix(2.0829939,0,0,-2.0829939,-337.96442,939.27641)"
     id="g10"><g
       transform="scale(0.1,0.1)"
       id="g12"><path
         id="path156"
         style="fill:#ed1248;fill-opacity:1;fill-rule:evenodd;stroke:none"
         d="m 1967.32,3307.57 -63.43,113.2 229.34,0 -115.16,243.98 -168.84,-357.18 -202.01,0 264.47,482.1 212.76,0 262.52,-482.1 -419.65,0 0,0"
         inkscape:connector-curvature="0" /><path
         id="path158"
         style="fill:#ed1248;fill-opacity:1;fill-rule:evenodd;stroke:none"
         d="m 2387.94,3587.65 251.79,0 c 63.44,0 88.81,3.9 88.81,48.8 0,42.94 -20.5,47.82 -85.88,47.82 l -255.69,0 -56.6,105.4 355.23,0 c 167.86,0 230.31,-73.19 230.31,-151.27 0,-75.15 -57.58,-158.1 -242.02,-158.1 l -83.93,0 0,-172.73 -202.99,0 0,280.08 0.97,0 0,0"
         inkscape:connector-curvature="0" /><path
         id="path160"
         style="fill:#ed1248;fill-opacity:1;fill-rule:evenodd;stroke:none"
         d="m 3441.94,3343.66 c -60.51,-28.3 -135.66,-41.95 -215.69,-41.95 -242.02,0 -324.98,134.67 -324.98,245.94 0,140.52 122.97,248.85 334.75,248.85 77.11,0 144.43,-11.71 201.04,-33.18 l 0,-139.56 c -58.56,31.23 -109.3,44.89 -168.83,44.89 -101.51,0 -184.46,-45.86 -184.46,-119.05 0,-72.22 84.91,-119.08 186.41,-119.08 58.56,0 106.37,11.72 171.76,41.97 l 0,-128.83"
         inkscape:connector-curvature="0" /><path
         id="path162"
         style="fill:#171717;fill-opacity:1;fill-rule:evenodd;stroke:none"
         d="m 3480.53,3711.87 -5.36,0 0,35.44 13.49,0 c 8.38,0 12.52,-3.09 12.52,-10.08 0,-6.34 -3.99,-9.1 -9.18,-9.75 l 10.07,-15.61 -6.01,0 -9.36,15.36 -6.17,0 0,-15.36 6.42,19.92 c 4.56,0 8.62,0.32 8.62,5.76 0,4.4 -3.98,5.21 -7.72,5.21 l -7.32,0 0,-10.97 6.42,0 -6.42,-19.92 0,0 z m 6.51,-7.89 c 13.89,0 24.87,10.9 24.87,25.69 0,14.55 -10.98,25.52 -24.87,25.52 -14.07,0 -25.04,-10.97 -25.04,-25.52 0,-14.79 10.97,-25.69 25.04,-25.69 l 0,0 z m -31.21,25.69 c 0,17.64 14.3,30.64 31.21,30.64 16.73,0 31.04,-13 31.04,-30.64 0,-17.8 -14.31,-30.8 -31.04,-30.8 -16.91,0 -31.21,13 -31.21,30.8 l 0,0"
         inkscape:connector-curvature="0" /></g></g></svg>