<?xml version="1.0" encoding="UTF-8" standalone="no"?>
<svg
   xmlns:dc="http://purl.org/dc/elements/1.1/"
   xmlns:cc="http://creativecommons.org/ns#"
   xmlns:rdf="http://www.w3.org/1999/02/22-rdf-syntax-ns#"
   xmlns:svg="http://www.w3.org/2000/svg"
   xmlns="http://www.w3.org/2000/svg"
   viewBox="0 0 399.99999 100"
   height="100"
   width="400"
   version="1.1"
   id="svg3487">
  <metadata
     id="metadata3493">
    <rdf:RDF>
      <cc:Work
         rdf:about="">
        <dc:format>image/svg+xml</dc:format>
        <dc:type
           rdf:resource="http://purl.org/dc/dcmitype/StillImage" />
        <dc:title></dc:title>
      </cc:Work>
    </rdf:RDF>
  </metadata>
  <defs
     id="defs3491" />
  <g
     style="fill:#ffffff"
     transform="matrix(0.40976153,0.12919732,-0.12919732,0.40976153,199.939,-29.315456)"
     id="g3497">
    <path
       id="path3499"
       d="m -317.78313,380.22618 c -0.2475,-0.16461 -1.125,-0.30024 -1.95,-0.30138 -2.31868,-0.003 -5.42902,-0.843 -8.47897,-2.2893 -1.52843,-0.7248 -2.9975,-1.31781 -3.26459,-1.31781 -1.25049,0 -5.21067,-3.56991 -10.06474,-9.0729 -1.40501,-1.59285 -3.63449,-5.46945 -4.61647,-8.0271 -0.28507,-0.7425 -0.69686,-1.55982 -0.91509,-1.81623 -0.41204,-0.48417 -1.81331,-4.45149 -2.21945,-6.28377 -0.12801,-0.5775 -0.44215,-1.8093 -0.6981,-2.73735 -0.25594,-0.92802 -0.55209,-2.95302 -0.6581,-4.5 -0.14024,-2.04621 -0.34832,-3.03414 -0.76363,-3.6255 -0.53318,-0.75921 -0.57086,-1.46595 -0.57086,-10.7073 0,-6.2727 0.10981,-9.96231 0.3,-10.07985 0.165,-0.10197 0.3,-1.053 0.3,-2.11341 0,-1.06038 0.1297,-2.50368 0.28822,-3.20727 0.15852,-0.70362 0.43004,-2.42682 0.60339,-3.82932 0.17334,-1.4025 0.44335,-3.225 0.60001,-4.05 0.15667,-0.825 0.40984,-2.175 0.56261,-3 0.15277,-0.825 0.48361,-2.2425 0.73521,-3.15 0.25159,-0.9075 0.55128,-2.325 0.66596,-3.15 0.11469,-0.825 0.41749,-1.66512 0.6729,-1.86696 0.25541,-0.20181 0.56661,-0.94431 0.69156,-1.65 0.40909,-2.31042 2.00031,-7.85319 4.33003,-15.08304 0.42535,-1.32 1.22666,-3.8175 1.78068,-5.55 1.25693,-3.93057 1.86785,-5.39121 3.76431,-9 0.4769,-0.9075 0.87564,-1.95912 0.8861,-2.33694 0.0105,-0.37782 0.29945,-1.23666 0.6422,-1.90851 0.34275,-0.67185 0.87563,-2.01174 1.18417,-2.97756 0.30854,-0.96582 1.12065,-3.00948 1.80469,-4.54152 2.11095,-4.72776 3.20765,-7.22955 3.78429,-8.63274 0.30452,-0.741 0.90674,-1.7535 1.33828,-2.25 0.43154,-0.4965 1.13441,-1.64523 1.56194,-2.55273 0.42753,-0.9075 1.40771,-2.7975 2.17818,-4.2 0.77046,-1.4025 1.80285,-3.36 2.29419,-4.35 1.67002,-3.36492 4.1594,-7.25322 5.0374,-7.86819 0.32652,-0.22872 0.59368,-0.6702 0.59368,-0.98112 0,-0.31089 0.12171,-0.6405 0.27046,-0.73245 0.14876,-0.0919 0.75949,-0.87615 1.3572,-1.7427 0.5977,-0.86655 1.54703,-2.18304 2.10962,-2.92554 0.56258,-0.7425 1.03184,-1.46646 1.0428,-1.60884 0.0226,-0.29364 0.64103,-1.07499 3.71316,-4.69116 3.14444,-3.70131 3.95433,-4.58463 6.98532,-7.61868 4.13882,-4.143 8.44507,-7.98132 8.95434,-7.98132 0.0953,0 0.83644,-0.46614 1.64699,-1.03587 1.8501,-1.30041 7.52869,-4.12767 9.32011,-4.64031 0.7425,-0.21246 1.6601,-0.50724 2.03912,-0.65505 1.16079,-0.45273 3.57182,-0.30018 5.23266,0.33108 0.86802,0.32991 1.81832,0.59991 2.11178,0.6 0.94936,2.7e-4 4.21846,1.83402 6.08337,3.41238 1.09186,0.92409 2.40878,2.46876 3.30001,3.87066 0.81568,1.2831 1.87289,2.94567 2.34934,3.69465 0.95423,1.5 2.57339,5.87295 2.57971,6.96717 0.002,0.38211 0.16265,0.98961 0.35654,1.35 0.19388,0.36042 0.47628,1.19529 0.62754,1.85529 0.2576,1.12398 0.81467,9.1527 0.84303,12.15 0.0276,2.91969 -1.19039,10.94646 -2.38996,15.75 -0.16482,0.66 -0.50736,2.10999 -0.7612,3.22218 -0.25384,1.11219 -0.65287,2.48013 -0.88673,3.03984 -0.23387,0.55971 -0.42521,1.4928 -0.42521,2.07354 0,0.58077 -0.14572,1.50783 -0.32383,2.06019 -0.1781,0.55233 -0.80682,2.55675 -1.39716,4.45425 -0.59033,1.8975 -1.25525,3.855 -1.47759,4.35 -0.86263,1.92051 -1.43601,3.36426 -1.96587,4.95 -0.6791,2.03238 -1.74343,4.67352 -2.84102,7.05 -0.45723,0.99 -1.13194,2.475 -1.49935,3.3 -1.04593,2.34858 -1.8934,4.13328 -2.35051,4.95 -0.23087,0.4125 -0.91301,1.7625 -1.51587,3 -1.35323,2.77779 -2.21767,4.25802 -2.71554,4.65 -0.20958,0.165 -0.62058,0.7725 -0.91333,1.35 -0.29276,0.5775 -0.72809,1.27371 -0.96741,1.54716 -0.23931,0.27342 -0.79678,1.16793 -1.23882,1.98774 -1.60293,2.97288 -2.76397,4.79277 -3.88583,6.0909 -0.62942,0.72831 -1.65075,2.09874 -2.26963,3.04539 -0.61888,0.94662 -1.46782,1.95912 -1.88654,2.25 -0.41872,0.29085 -1.1889,0.88113 -1.71151,1.31172 -1.81664,1.49682 -4.93201,2.96709 -6.28695,2.96709 -1.63138,0 -4.14484,-0.92004 -5.47156,-2.00286 -0.57089,-0.46593 -1.49975,-1.2216 -2.06414,-1.67925 -1.6019,-1.29897 -2.04041,-3.12912 -1.88532,-7.86855 0.0702,-2.14464 0.27326,-4.50684 0.45128,-5.24934 0.17803,-0.7425 0.45948,-1.89 0.62543,-2.55 0.16596,-0.66 0.43849,-1.83714 0.60563,-2.61582 0.16714,-0.77871 0.57874,-1.95459 0.91467,-2.61306 0.33592,-0.65847 0.61077,-1.47798 0.61077,-1.82112 0,-0.34314 0.25085,-1.12476 0.55743,-1.73694 0.30659,-0.61218 0.65124,-1.50258 0.76591,-1.97865 0.11466,-0.4761 0.74131,-2.00826 1.39257,-3.40479 0.65125,-1.39656 1.18409,-2.61027 1.18409,-2.69715 0,-0.16836 2.9978,-6.1479 4.31264,-8.60214 0.43305,-0.80835 0.78736,-1.63116 0.78736,-1.82853 0,-0.19734 0.27,-0.60315 0.6,-0.9018 0.33,-0.29865 0.6,-0.71058 0.6,-0.91542 0,-0.48402 1.8667,-2.1201 2.73243,-2.39487 0.99619,-0.31617 1.56449,0.59241 1.31992,2.11029 -0.25371,1.57461 -0.269,1.8381 -0.20583,3.54699 0.0431,1.16535 0.14941,1.42812 0.54633,1.35 0.27106,-0.0533 0.60856,-0.33324 0.75,-0.62199 0.14143,-0.28875 0.39251,-0.76125 0.55794,-1.05 1.00627,-1.75635 3.12591,-6.33678 4.06071,-8.775 0.60097,-1.5675 1.55021,-3.93 2.10942,-5.25 0.97066,-2.29122 1.8115,-4.83315 3.57251,-10.8 0.43827,-1.485 1.05543,-3.51 1.37146,-4.5 0.31603,-0.99 0.705,-2.5425 0.86437,-3.45 0.15937,-0.9075 0.44116,-2.2575 0.62619,-3 0.55115,-2.21172 0.93596,-4.58571 0.91178,-5.625 -0.0244,-1.04706 -0.0174,-2.28618 0.0295,-5.25 0.0419,-2.64825 -0.26832,-4.85337 -1.0157,-7.22019 -0.55633,-1.76181 -0.85111,-2.20866 -2.12759,-3.225 -2.03224,-1.61808 -3.5823,-1.63818 -6.26234,-0.0811 -3.47599,2.01945 -6.44334,4.65093 -8.23325,7.30134 -0.72429,1.0725 -1.77955,2.5575 -2.34502,3.3 -1.28194,1.68327 -4.6628,6.59004 -4.6628,6.76731 0,0.0722 -0.45731,0.77286 -1.01625,1.557 -0.55893,0.78414 -1.71557,2.77569 -2.57031,4.42569 -2.35877,4.5534 -4.28233,7.98417 -5.13023,9.15 -0.42001,0.5775 -0.90453,1.3875 -1.07672,1.8 -0.17219,0.4125 -1.06223,2.37 -1.97786,4.35 -0.91563,1.98 -2.00044,4.41 -2.41068,5.4 -0.41024,0.99 -0.98334,2.34 -1.27354,3 -1.54805,3.52059 -3.62581,8.93322 -5.18233,13.5 -0.16871,0.495 -0.53883,1.575 -0.82249,2.4 -0.28366,0.825 -0.77998,2.31 -1.10294,3.3 -0.96055,2.94447 -2.66041,7.95258 -3.4621,10.2 -0.412,1.155 -0.9252,2.9775 -1.14044,4.05 -0.21523,1.0725 -0.52979,2.49 -0.69901,3.15 -1.6254,6.33939 -3.06803,13.69356 -3.94291,20.1 -0.59706,4.37211 -0.85486,8.59035 -0.87322,14.28828 -0.0152,4.72566 0.0648,5.95776 0.40515,6.24024 0.23326,0.19359 0.49942,1.12137 0.59144,2.06175 0.38235,3.9069 0.55374,5.02437 0.81209,5.29473 0.14979,0.15675 0.27335,0.56175 0.27457,0.9 0.003,0.85029 1.95165,6.50178 2.60959,7.56867 1.207,1.95723 2.37546,3.7797 3.00449,4.68615 0.36647,0.52809 1.00698,1.46259 1.42337,2.07663 0.41638,0.61404 1.12936,1.30899 1.5844,1.54428 0.45504,0.23532 1.08419,0.71166 1.39813,1.05855 0.31393,0.34689 0.69919,0.63072 0.85612,0.63072 0.15693,0 0.79326,0.40227 1.41405,0.89397 0.65232,0.51663 2.47509,1.33968 4.3186,1.95 2.78971,0.92355 3.56432,1.05603 6.17481,1.05603 2.84327,0 5.97633,-0.54612 6.73225,-1.17348 0.19067,-0.15822 1.01837,-0.51255 1.83932,-0.78735 2.66882,-0.89334 6.45164,-2.89293 10.2252,-5.40504 4.3839,-2.91837 5.94252,-4.18578 9.57272,-7.78413 1.49815,-1.485 3.63055,-3.48852 4.73867,-4.45227 1.10813,-0.96375 2.43878,-2.38125 2.95702,-3.15 0.51824,-0.76875 1.90003,-2.43558 3.07065,-3.7041 2.95498,-3.20205 3.96079,-4.47195 4.23242,-5.34363 0.12854,-0.4125 0.94714,-1.71483 1.81911,-2.89407 0.87198,-1.17924 1.93923,-2.84232 2.37167,-3.6957 0.79155,-1.56204 3.02507,-4.83612 4.81636,-7.06023 0.53156,-0.66 1.25417,-1.74 1.6058,-2.4 0.35162,-0.66 0.7729,-1.43625 0.93617,-1.725 0.37006,-0.65445 0.52899,-0.94383 2.34781,-4.275 0.81081,-1.485 2.11377,-3.8475 2.89545,-5.25 2.996,-5.3754 4.17291,-8.09778 4.04484,-9.35622 -0.14049,-1.38036 -0.076,-7.51932 0.10186,-9.69378 0.081,-0.99 0.23195,-2.94255 0.3355,-4.33899 0.1121,-1.5117 0.53,-3.57516 1.03286,-5.1 0.46452,-1.40856 1.0586,-3.23601 1.32018,-4.06101 0.8991,-2.83569 1.42399,-4.07097 3.14414,-7.39941 2.47992,-4.79853 2.38602,-4.63572 4.47015,-7.75059 1.04881,-1.5675 2.1324,-3.1875 2.40798,-3.6 0.79261,-1.18641 5.83786,-6.28299 6.99609,-7.06725 0.5775,-0.39105 1.62249,-1.11678 2.32221,-1.61274 1.77956,-1.26132 2.57393,-1.64064 5.63999,-2.69307 2.40166,-0.82437 3.06297,-0.92283 6.21193,-0.92475 l 3.52414,-0.003 1.12586,1.02084 c 1.38193,1.25301 1.83659,2.68734 1.69719,5.35416 l -0.10585,2.025 2.01727,0.003 c 2.37346,0.003 3.05236,0.36351 5.0232,2.6724 0.73923,0.86604 1.34406,1.61127 1.34406,1.65609 0,0.0448 0.3375,1.01193 0.75,2.1492 0.4125,1.13724 0.75,2.40771 0.75,2.82327 0,0.41553 0.27475,1.49613 0.61056,2.40129 0.45504,1.22658 0.68903,2.94477 0.91866,6.74577 0.39836,6.59391 0.39726,6.87177 -0.0432,10.95 -0.58117,5.38098 -0.60677,5.16657 0.69276,5.80152 l 1.12877,0.55149 1.72123,-0.96039 c 1.92296,-1.07316 3.07124,-2.0238 3.07124,-2.54283 0,-0.18999 0.3305,-0.65589 0.73444,-1.03539 0.40394,-0.37947 0.81827,-1.07166 0.92074,-1.53819 0.10247,-0.46653 0.42788,-1.15833 0.72315,-1.53732 1.22504,-1.57248 1.52143,-2.58039 1.54357,-5.24919 0.0121,-1.45197 0.15201,-3.38241 0.31103,-4.28991 0.15901,-0.9075 0.40382,-2.7975 0.54401,-4.2 0.14018,-1.4025 0.4142,-3.09 0.60892,-3.75 0.19472,-0.66 0.47268,-1.6725 0.61769,-2.25 0.73586,-2.93055 1.17105,-4.47381 1.60736,-5.7 0.26419,-0.7425 0.48584,-1.62 0.49254,-1.95 0.0111,-0.54876 0.70461,-2.7342 1.93915,-6.11109 2.22305,-6.08079 6.55971,-9.62244 11.7973,-9.63453 2.60346,-0.006 3.52363,0.53319 4.50851,2.64195 1.09465,2.34378 0.97804,4.0791 -0.56806,8.45367 -0.67063,1.8975 -1.42599,4.125 -1.67859,4.95 -0.25259,0.825 -1.52189,3.7275 -2.82067,6.45 -1.29879,2.7225 -2.50085,5.45625 -2.67126,6.075 -0.17041,0.61875 -0.44483,1.57332 -0.60983,2.1213 -0.165,0.54795 -0.3,1.75662 -0.3,2.68587 0,0.92928 -0.14177,2.00076 -0.31505,2.38107 -0.37057,0.8133 0.20437,2.47209 1.155,3.33243 1.02087,0.92385 1.93496,0.39483 3.4449,-1.99371 1.57212,-2.48691 5.61515,-10.56144 5.61515,-11.21427 0,-0.24267 1.55249,-3.54528 3.44999,-7.33911 1.8975,-3.79383 3.45463,-7.19055 3.46029,-7.54824 0.006,-0.35769 0.60146,-1.73034 1.32401,-3.05034 0.72254,-1.32 1.88223,-3.48 2.57709,-4.8 0.69487,-1.32 1.49687,-2.7375 1.78225,-3.15 0.28538,-0.4125 0.60177,-1.09395 0.7031,-1.51434 0.23275,-0.96558 4.07656,-6.79302 5.12048,-7.76295 0.43053,-0.40002 0.78278,-0.89229 0.78278,-1.09392 0,-0.20166 0.46753,-0.75186 1.03897,-1.22271 3.36756,-2.77476 4.69085,-3.40608 7.13943,-3.40608 1.70898,0 2.08846,0.12096 3.73416,1.19031 2.16097,1.40418 3.68744,3.45738 3.68744,4.95981 0,0.60822 0.18723,1.12485 0.46372,1.27959 0.40627,0.22734 0.42351,0.68448 0.1392,3.68988 -0.2913,3.07932 -0.36209,4.27005 -0.3243,5.45541 0.0295,0.92466 -0.36534,3.10173 -0.60935,3.36 -0.1481,0.15675 -0.26927,0.73938 -0.26927,1.29471 0,0.55536 -0.13296,1.25817 -0.29546,1.5618 -0.16251,0.30366 -0.35164,1.27353 -0.42029,2.15529 -0.18062,2.31996 -0.94199,5.45724 -2.47913,10.21548 -0.25093,0.77676 -0.36574,1.55874 -0.25512,1.73772 0.11062,0.17898 -0.004,0.96096 -0.25397,1.73772 -1.95999,6.08247 -2.30098,7.56228 -1.74253,7.56228 0.40446,0 1.11213,-0.92595 2.0373,-2.66571 0.47256,-0.88863 1.29233,-2.37363 1.82171,-3.3 0.52938,-0.92637 1.32029,-2.42679 1.75757,-3.33429 1.75646,-3.64515 2.9582,-5.97021 4.34167,-8.4 0.79856,-1.4025 1.68113,-3.0225 1.96127,-3.6 1.42694,-2.94159 3.88265,-7.87224 4.78124,-9.6 0.55779,-1.0725 1.50213,-2.9625 2.0985,-4.2 0.59637,-1.2375 1.74606,-3.465 2.55483,-4.95 0.8088,-1.485 1.47546,-2.88498 1.48149,-3.11109 0.006,-0.22608 0.38217,-1.00554 0.83592,-1.73214 4.652311,-7.44969 5.728591,-8.81076 6.958861,-8.80017 2.22063,0.0192 5.82972,2.91372 8.29077,6.64953 0.72684,1.10334 1.45743,2.09007 1.62348,2.1927 0.46602,0.28803 0.35952,4.71243 -0.14811,6.15117 -0.2475,0.70149 -0.45,1.59234 -0.45,1.9797 0,0.70542 -0.38781,1.68177 -2.28399,5.75025 -0.55881,1.19898 -1.01601,2.4834 -1.01601,2.85426 0,0.37083 -0.27693,1.41486 -0.61539,2.32002 -0.33849,0.90519 -0.82023,2.25327 -1.07058,2.99577 -0.25035,0.7425 -0.71592,1.92228 -1.03461,2.62173 -0.8175,1.79427 -0.81447,6.49368 0.006,8.73732 0.86778,2.37414 1.34907,2.94747 3.1755,3.78291 1.90551,0.87159 3.65247,0.96738 5.02938,0.27579 1.32207,-0.66408 3.74289,-3.04425 4.41291,-4.33881 0.30489,-0.58908 1.84647,-3.00222 3.42576,-5.36253 1.57929,-2.36028 2.87142,-4.4793 2.87142,-4.70892 0,-0.22962 0.73206,-1.87716 1.62678,-3.6612 0.89475,-1.78404 1.71444,-3.77304 1.8216,-4.41999 0.22119,-1.33566 0.30939,-1.58133 1.60713,-4.4763 0.51774,-1.155 1.19754,-3.045 1.51065,-4.2 0.57606,-2.12499 0.93651,-3.16497 2.13153,-6.15 0.3633,-0.9075 0.70416,-2.055 0.75744,-2.55 0.0532,-0.495 0.64767,-2.50074 1.32087,-4.45716 0.6732,-1.95645 1.224,-3.81069 1.224,-4.12053 0,-0.30984 0.4725,-1.97559 1.05,-3.70167 0.5775,-1.72608 1.05,-3.53079 1.05,-4.01046 0,-0.47964 0.35139,-1.80318 0.78087,-2.94114 0.42948,-1.13796 0.97596,-2.59605 1.2144,-3.24015 0.23844,-0.6441 0.36222,-1.35699 0.27501,-1.58418 -0.0872,-0.22722 0.31578,-1.81563 0.89544,-3.52983 0.57969,-1.7142 1.24938,-4.13802 1.48821,-5.38629 0.23883,-1.24824 0.66123,-2.77785 0.93867,-3.39906 0.93528,-2.09424 1.29834,-3.22548 1.30287,-4.05954 0.003,-0.45648 0.74703,-2.31048 1.65453,-4.11999 0.9075,-1.80951 1.65,-3.47904 1.65,-3.7101 0,-0.39366 1.27455,-1.61466 3.20916,-3.07431 1.06275,-0.80187 4.75842,-2.66805 6.45141,-3.25773 1.9512,-0.67965 2.86269,-0.58074 3.8625,0.41907 0.86631,0.86631 0.8769,0.91806 0.87489,4.275 -0.003,3.0324 -0.10086,3.67248 -0.92034,5.94807 -0.50508,1.4025 -1.02138,3.09 -1.14738,3.75 -0.12597,0.66 -0.92682,2.58129 -1.77966,4.26954 -0.85281,1.68825 -1.55337,3.30825 -1.55679,3.6 -0.003,0.29175 -0.47469,1.88046 -1.0473,3.53046 -0.57261,1.65 -1.04232,3.396 -1.04382,3.88002 0,0.48402 -0.25215,1.63152 -0.55704,2.55 -0.86274,2.59878 -1.24449,4.40316 -1.25871,5.9493 -0.007,0.78138 -0.14955,2.02818 -0.31638,2.77068 -0.16686,0.7425 -0.43842,1.9575 -0.60351,2.7 -0.16506,0.7425 -0.35256,2.4174 -0.41667,3.72204 -0.0641,1.30461 -0.24816,2.72211 -0.40905,3.15 -0.16089,0.42786 -0.37218,1.55421 -0.46953,2.50296 -0.14421,1.40538 -0.0944,1.725 0.26868,1.725 0.24513,0 0.67257,-0.37125 0.94986,-0.825 0.27726,-0.45375 1.02288,-1.60548 1.6569,-2.55942 0.63402,-0.95394 1.15278,-1.79907 1.15278,-1.87806 0,-0.079 0.4725,-0.81591 1.05,-1.63752 0.5775,-0.82161 1.05,-1.63473 1.05,-1.8069 0,-0.52788 1.4163,-3.05358 2.68773,-4.7931 0.6633,-0.9075 1.57866,-2.31 2.03415,-3.11667 1.62222,-2.87307 3.6453,-5.7864 4.6947,-6.76062 0.43089,-0.40002 0.78342,-0.98544 0.78342,-1.30098 0,-1.25199 5.12769,-5.78139 8.81028,-7.78233 0.95364,-0.51813 5.26968,-0.75849 6.32796,-0.35241 0.26802,0.10287 0.76941,0.73998 1.1142,1.41582 0.34479,0.67581 0.903,1.60224 1.24044,2.05869 0.33747,0.45642 0.73158,1.54056 0.8757901,2.40918 0.14421,0.86862 0.40329,2.45682 0.57573,3.52932 0.45171,2.80929 0.64983,11.05299 0.29562,12.3 -0.16401,0.5775 -0.52098,1.82076 -0.7932,2.76282 -0.2722501,0.94203 -0.4174201,1.95723 -0.3225901,2.25597 0.0948,0.29871 -0.18183,1.48545 -0.61473,2.63718 -0.77898,2.07243 -1.1652,3.24048 -2.13072,6.44403 -0.27351,0.9075 -0.94314,2.50497 -1.48803,3.54993 -0.54492,1.04493 -0.99075,2.16078 -0.99075,2.47959 0,0.31884 -0.81,2.19555 -1.8,4.17048 -0.99,1.97493 -1.8,3.91152 -1.8,4.30353 0,0.39201 -0.33876,1.21194 -0.75282,1.82208 -1.19106,1.75515 -1.98723,3.46689 -1.77342,3.81285 0.11124,0.18 0.66918,0.24972 1.28634,0.16077 5.87643,-0.84708 8.9292,-2.4726 13.2399001,-7.04982 3.17724,-3.37368 4.27236,-4.71189 4.9506,-6.04941 0.29286,-0.5775 1.06745999,-1.6926 1.72136999,-2.478 1.57845001,-1.89585 2.52018001,-3.30465 2.78487001,-4.16607 0.11931,-0.38826 0.70656,-1.50576 1.30503,-2.48331 l 1.08813,-1.77738 0.0413,-6.77262 c 0.0364,-5.95695 0.11499,-6.9894 0.65271,-8.57262 0.33627,-0.99 0.7611,-2.63688 0.9441,-3.6597 0.183,-1.02285 0.65283,-2.71035 1.04406,-3.75 0.94848,-2.52045 1.25898,-3.43509 1.71096,-5.0403 0.2091,-0.7425 0.69426,-2.07249 1.0781999,-2.95551 0.38394,-0.88302 0.83628,-2.25009 1.00524,-3.03792 0.16896,-0.78783 0.95871,-3.02538 1.75497,-4.97232 1.35312,-3.30852 1.54323,-3.6048 2.90808,-4.53249 0.80319,-0.54591 1.67409,-0.99465 1.93533,-0.99717 0.26127,-0.003 0.57123,-0.1008 0.6888,-0.21837 0.1176,-0.1176 0.84885,-0.45498 1.62501,-0.74976 1.11351,-0.42291 2.29722,-0.53505 5.6112,-0.53163 2.31,0.003 4.38546,0.12183 4.61214,0.26541 0.42624,0.27 0.41904,0.48672 -0.21531,6.47976 -0.13974,1.32 -0.62577,3.48 -1.08006,4.8 -0.45432,1.32 -1.00518,3.0768 -1.22412,3.90402 -0.21891,0.82722 -0.88059,2.51091 -1.47036,3.74154 -0.58977,1.23063 -1.07229,2.48028 -1.07229,2.77698 0,0.2967 -0.58965,1.71801 -1.31037,3.15846 -0.72069,1.44045 -1.39971,2.90676 -1.50894,3.25848 -0.19005,0.61203 -2.11083,4.06659 -3.31413,5.96052 -0.31449,0.495 -0.95826,1.50465 -1.43058,2.24364 -0.80169,1.25436 -0.8463,1.48365 -0.67083,3.45 0.24243,2.71662 1.49733,6.84687 2.40969,7.93119 1.08633,1.29102 2.25798,1.67874 3.35646,1.11069 1.24395,-0.64326 3.22272,-3.09444 3.92121,-4.85736 0.32214,-0.81297 1.14054,-2.35566 1.81866,-3.42816 0.67815,-1.0725 1.37976,-2.2875 1.55916,-2.7 0.8031,-1.84656 2.17521,-4.48452 3.1209,-6 0.56631,-0.9075 1.11093,-1.8525 1.21029,-2.1 0.86415,-2.15226 2.18145,-4.62366 2.74836,-5.15625 0.37956,-0.35658 0.69012,-0.83067 0.69012,-1.05354 0,-0.22284 0.44793,-1.31307 0.99543,-2.42271 0.54747,-1.10961 1.16187,-2.625 1.36533,-3.3675 0.44088,-1.60902 1.70109,-5.37177 2.36121,-7.05 0.25959,-0.66 0.57174,-1.875 0.69363,-2.7 0.12189,-0.825 0.62652,-2.58 1.12137,-3.9 0.49485,-1.32 1.06671,-2.8725 1.27077,-3.45 0.20406,-0.5775 1.16499,-2.7375 2.135404,-4.8 0.97044,-2.0625 1.76271,-3.98895 1.76064,-4.281 -0.007,-1.06002 2.72274,-5.94849 4.1484,-7.42761 1.40379,-1.45641 1.47891,-1.49139 3.20124,-1.49139 1.50531,0 1.88703,0.11811 2.60517,0.80613 0.46278,0.44337 0.84141,0.96684 0.84141,1.16325 0,0.19644 0.19434,0.51843 0.43188,0.71559 0.63087,0.52356 2.0895,3.80709 2.53953,5.71677 0.55368,2.34933 0.31716,4.72692 -0.88014,8.84826 -0.19173,0.66 -0.4569,2.0775 -0.58926,3.15 -0.13236,1.0725 -0.52287,2.77905 -0.86778,3.79233 -0.34491,1.01328 -0.76548,2.81775 -0.93456,4.00989 -0.16908,1.19217 -0.38013,2.28525 -0.46902,2.42907 -0.26814,0.43386 -1.09878,3.61857 -1.36116,5.21871 -0.13527,0.825 -0.35781,2.1756 -0.49449,3.00132 -0.13668,0.82575 -0.36288,1.68636 -0.50265,1.91253 -0.13977,0.22614 -0.28911,1.91304 -0.33186,3.74865 -0.0428,1.83564 -0.17166,3.75576 -0.28647,4.26693 -0.23778,1.05867 0.28332,2.82117 1.61274,5.45469 1.80939,3.5844 4.29633,3.46527 8.37636,-0.40116 1.26879,-1.20237 2.77938,-2.81334 3.35688,-3.57993 0.5775,-0.76659 1.40094,-1.8234 1.82988,-2.34843 0.42891,-0.52503 0.86379,-1.30011 0.96636,-1.72242 0.1773,-0.72996 0.43227,-1.13988 2.39004,-3.84252 0.45996,-0.63495 1.16844,-2.07018 1.57437,-3.18936 0.40596,-1.11921 1.31745,-3.19713 2.02557,-4.6176 0.70812,-1.4205 1.47066,-3.3252 1.69452,-4.2327 0.22386,-0.9075 0.64191,-2.19 0.92895,-2.85 1.32897,-3.05556 1.49031,-3.52389 1.49031,-4.32588 0,-0.47055 0.42033,-1.98474 0.93405,-3.36483 0.51372,-1.38012 1.04433,-3.18429 1.17906,-4.00929 0.30225,-1.85025 0.71733,-3.57099 1.19412,-4.95 0.19965,-0.5775 0.47613,-1.725 0.6144,-2.55 0.13824,-0.825 0.3288,-1.905 0.42348,-2.4 0.33234,-1.73802 -0.10371,-1.86765 -3.04977,-0.90657 -1.45494,0.47463 -4.11645,1.61526 -5.91447,2.53476 -3.32154,1.6986 -3.6075,1.85886 -5.04117,2.82534 -1.5426,1.03986 -2.43669,-0.0174 -2.37084,-2.80353 0.10332,-4.36986 0.34176,-7.00509 0.77361,-8.55 0.27675,-0.99 0.62013,-2.76789 0.76308,-3.95088 0.26889,-2.22534 1.26993,-4.63377 2.32047,-5.583 0.32499,-0.29364 0.82656,-1.05654 1.11462,-1.69533 0.87777,-1.94658 5.73135,-4.60137 13.80936,-7.55334 3.89814,-1.42452 3.97695,-1.46802 4.197,-2.31624 0.1143,-0.44067 0.31803,-1.74621 0.45273,-2.90121 0.1347,-1.155 0.38478,-2.64 0.55575,-3.3 0.17094,-0.66 0.46821,-1.8075 0.66057,-2.55 1.27446,-4.9194 1.85679,-6.03264 4.688975,-8.96376 2.16816,-2.24394 3.0873,-2.62554 7.78227,-3.23109 2.35497,-0.30372 3.84321,1.12353 3.12936,3.00108 -0.17415,0.45807 -0.31665,1.21686 -0.31665,1.68624 0,0.86346 -1.5072,5.7999 -2.12103,6.9468 -0.18333,0.34257 -0.44508,1.38513 -0.58167,2.31678 -0.13656,0.93168 -0.34701,2.28597 -0.46764,3.00957 l -0.21933,1.31565 0.86982,-0.17799 c 2.96904,-0.60753 6.41874,-1.17945 7.31985,-1.21356 1.22319,-0.0463 1.21188,-0.14805 0.46251,4.16028 -0.25827,1.485 -0.51618,3.37944 -0.57309,4.20987 -0.0569,0.83043 -0.25041,1.97793 -0.42999,2.55 -0.88167,2.8086 -1.29399,4.49154 -1.15533,4.71585 0.20772,0.33609 -0.82518,4.11327 -1.57968,5.77668 -0.33618,0.74118 -0.61422,1.70352 -0.61782,2.13855 -0.005,0.62274 -0.18204,0.82413 -0.8316,0.94701 -0.88092,0.16665 -5.13897,1.20612 -7.125,1.73937 -2.23965,0.60132 -3.29853,0.85728 -3.900005,0.94278 -0.49332,0.0701 -0.61653,0.35148 -0.693,1.58259 -0.0512,0.8235 -0.2199,1.62555 -0.375,1.7823 -0.1551,0.15675 -0.282,0.73938 -0.282,1.29471 0,0.55536 -0.1446,1.27989 -0.3213,1.6101 -0.17673,0.33021 -0.44604,1.90761 -0.5985,3.50529 -0.15243,1.59771 -0.42372,3.7149 -0.60285,4.7049 -0.39558,2.18619 -0.89967,8.33058 -0.88605,10.8 0.0308,5.57292 0.36513,10.21512 0.76782,10.66008 0.23367,0.25821 0.6096,1.34031 0.83544,2.40468 0.22581,1.0644 0.90483,2.91147 1.50894,4.10463 0.882515,1.74303 1.331705,2.2884 2.285495,2.775 1.93236,0.9858 3.234,0.7785 5.86101,-0.93342 1.22691,-0.79953 4.347,-3.92985 4.35375,-4.368 0.003,-0.13365 0.50829,-0.78831 1.125,-1.45485 1.22646,-1.32561 3.37125,-4.34412 3.37125,-4.74462 0,-0.32004 1.91031,-3.3543 3.375,-5.36076 0.61875,-0.84759 1.125,-1.75752 1.125,-2.02203 0,-0.26451 0.47928,-1.2189 1.06506,-2.12082 1.04157,-1.60377 1.0611,-1.68945 0.88692,-3.88989 -0.29211,-3.68979 -0.24915,-6.64812 0.12198,-8.4 0.19227,-0.9075 0.45717,-2.325 0.58869,-3.15 0.23262,-1.45911 0.76173,-3.06192 2.12931,-6.45 0.3663,-0.9075 0.76638,-2.1225 0.88905,-2.7 0.12267,-0.5775 0.86907,-2.32977 1.65864,-3.89391 0.78957,-1.56417 1.60431,-3.31917 1.81047,-3.9 0.36453,-1.02684 2.15316,-3.84858 3.82509,-6.03441 0.45363,-0.59307 0.82479,-1.18203 0.82479,-1.30881 0,-0.3609 3.95571,-5.02314 6.55038,-7.72038 0.81168,-0.84372 3.20169,-2.72862 4.70661,-3.71187 3.67407,-2.40048 6.19581,-3.13062 10.81221,-3.13062 3.66393,0 4.20033,0.2007 6.14418,2.29881 2.21358,2.38929 2.98662,4.98003 2.98662,10.00929 0,3.37176 -0.56898,6.30147 -1.61772,8.32947 -0.26526,0.51294 -0.48228,1.21272 -0.48228,1.55502 0,0.78342 -1.80915,4.39977 -3.16878,6.33411 -0.56715,0.80694 -1.03122,1.61643 -1.03122,1.79892 0,0.90264 -4.60659,6.47637 -10.125,12.25077 -2.02125,2.115 -3.675,4.00002 -3.675,4.18896 0,0.18891 -0.38448,0.57774 -0.85437,0.86406 -0.46989,0.28632 -1.95636,1.55766 -3.30321,2.82522 l -2.44887,2.3046 1.05246,1.7454 c 0.57885,0.95994 1.05279,1.91958 1.05321,2.13252 0,0.55671 1.10577,2.07243 2.83656,3.89208 2.5455,2.67624 5.77602,3.402 9.68622,2.17614 3.49776,-1.09656 4.58697,-1.83855 9.50358,-6.474 2.07594,-1.9572 3.77442,-3.78342 3.77442,-4.05822 0,-0.27483 0.21435,-0.67758 0.47634,-0.89502 0.57102,-0.47388 4.32366,-6.16875 4.32366,-6.56139 0,-0.28266 0.46317,-1.06239 2.55489,-4.30113 2.02725,-3.1389 2.50644,-4.05447 2.72121,-5.19924 0.11361,-0.60552 0.47049,-1.79064 0.79311,-2.63364 1.58019,-4.12917 1.8018,-4.96011 1.60407,-6.01416 -0.20715,-1.10421 -1.30977,-1.96857 -2.51121,-1.96857 -1.18143,0 -3.2058,-1.38645 -4.07613,-2.79165 -0.94272,-1.52205 -1.27356,-2.73423 -1.71954,-6.30033 -0.29358,-2.3475 -0.26601,-2.67357 0.75303,-8.90802 0.47646,-2.91492 1.44306,-6.10668 2.47272,-8.16504 0.38931,-0.77826 0.70785,-1.69488 0.70785,-2.03694 0,-1.17009 1.15575,-2.84844 3.67998,-5.34396 2.39448,-2.36724 2.58513,-2.49102 3.69687,-2.4 1.03365,0.0846 1.23762,0.23532 1.72551,1.27503 0.43929,0.93612 0.53211,1.72437 0.45048,3.82515 -0.0635,1.63359 0.012,2.64516 0.19716,2.64372 0.165,0 1.8525,-0.79809 3.75,-1.77066 7.82148,-4.00896 15.47307,-7.73799 17.1,-8.33376 1.40106,-0.51306 3.73374,-0.49491 4.76244,0.037 1.60593,0.83043 5.14236,5.52021 6.06393,8.04159 0.7251,1.98375 0.72141,2.99289 -0.0189,5.20626 -0.32595,0.97434 -0.5964,2.04156 -0.60102,2.37156 -0.01,0.68322 -1.33512,4.04028 -2.51325,6.36504 -0.4362,0.86076 -0.79395,1.94076 -0.79497,2.4 0,0.45921 -0.17412,1.17246 -0.38472,1.58496 -0.21057,0.4125 -0.53673,1.29 -0.72477,1.95 -0.18807,0.66 -0.56427,1.9425 -0.83604,2.85 -0.27177,0.9075 -0.55821,2.5275 -0.6366,3.6 -0.0784,1.0725 -0.25929,2.355 -0.40209,2.85 -0.14277,0.495 -0.3387,1.75767 -0.43539,2.8059 -0.26718,2.89665 1.04019,7.70292 2.3436,8.61588 0.75942,0.53193 3.83166,0.5595 5.27787,0.0474 2.69751,-0.95526 6.2925,-4.48776 8.8689,-8.71473 0.48459,-0.79509 1.60815,-2.55009 2.49678,-3.9 2.39628,-3.64029 2.47536,-3.90864 1.7766,-6.02922 -0.45501,-1.38075 -0.54963,-2.27991 -0.42627,-4.05 0.43971,-6.30867 0.95865,-9.60546 1.98732,-12.6252 0.19671,-0.5775 0.41199,-1.725 0.47835,-2.55 0.0664,-0.825 0.52824,-2.6475 1.02642,-4.05 0.49818,-1.4025 1.11537,-3.225 1.37154,-4.05 0.87645,-2.82252 4.18404,-9.011847 5.97024,-11.171787 0.85875,-1.03848 2.95215,-2.56356 3.91503,-2.85219 0.32181,-0.0965 1.32567,-0.45678 2.23086,-0.8007 3.2799,-1.24623 5.80932,-0.642 7.43955,1.77708 0.67884,1.00734 0.69588,1.18965 0.57465,6.142857 -0.12045,4.92057 -0.51372,7.48236 -1.70799,11.12604 -0.16608,0.5067 -0.30198,1.37247 -0.30198,1.92393 0,0.61392 -0.68634,2.40831 -1.77045,4.6287 -0.97374,1.99434 -2.33781,4.90857 -3.03126,6.47607 -0.69342,1.5675 -1.54002,3.4575 -1.88127,4.2 -0.34128,0.7425 -0.72612,2.025 -0.85524,2.85 -0.12912,0.825 -0.32478,1.94628 -0.43479,2.49171 -0.33186,1.64556 0.8964,5.05515 2.38065,6.60855 1.97763,2.06979 3.60384,2.75058 6.5574,2.74521 2.96055,-0.005 3.91431,-0.31098 6.68496,-2.14206 2.3469,-1.55103 2.83389,-2.04189 4.52241,-4.55859 0.64767,-0.96534 1.38009,-2.05617 1.62759,-2.42406 0.2475,-0.36789 1.00242,-1.33305 1.6776,-2.14482 0.67518,-0.81177 1.58295,-2.21844 2.01732,-3.12594 0.79809,-1.66752 0.94728,-1.92918 2.27889,-3.99729 0.67389,-1.04664 0.70857,-1.26 0.39528,-2.43135 -0.81156,-3.03435 -0.73545,-6.48372 0.22887,-10.37136 0.18417,-0.7425 0.44871,-1.89 0.58788,-2.55 0.40707,-1.93074 0.75663,-2.85303 2.07234,-5.46834 0.68301,-1.35759 1.24182,-2.74671 1.24182,-3.08694 0,-0.64764 0.54696,-1.740057 2.25048,-4.494717 0.56118,-0.9075 1.35978,-2.2776 1.77465,-3.0447 0.67521,-1.24854 1.35174,-2.27889 3.32487,-5.06376 1.09563,-1.54638 2.36757,-2.9997 5.775,-6.59859 1.85625,-1.96056 3.375,-3.69333 3.375,-3.85065 0,-0.2616 0.65079,-0.7926 4.3188,-3.52398 0.68814,-0.51243 2.17827,-1.42368 3.3114,-2.025 1.77408,-0.94149 2.33517,-1.09278 4.04001,-1.08945 2.18784,0.004 5.41452,0.87429 6.69264,1.80453 0.44706,0.32538 0.94923,0.5916 1.11591,0.5916 0.54402,0 1.16871,-2.75562 0.83946,-3.70299 -0.20442,-0.58827 -0.18792,-1.21515 0.0532,-2.02005 0.1923,-0.64188 0.4164,-3.21366 0.498,-5.71506 0.0816,-2.5014 0.24558,-4.6974 0.36444,-4.87995 0.11886,-0.18258 0.30561,-1.74945 0.41499,-3.48195 0.10941,-1.7325 0.35289,-3.8925 0.54108,-4.8 0.18819,-0.9075 0.46215,-3.11858 0.60876,-4.91351 0.14664,-1.79493 0.36648,-3.48243 0.48855,-3.75 0.12207,-0.26757 0.321,-1.56649 0.44211,-2.88649 0.12108,-1.32 0.3753,-3.075 0.56496,-3.9 0.18963,-0.825 0.4572,-2.31 0.59454,-3.3 0.51924,-3.742647 0.98478,-6.048437 1.51422,-7.499997 0.30093,-0.825 0.71055,-2.04 0.91026,-2.7 1.37469,-4.54302 3.2742,-5.40248 7.26114,-3.2854 2.91039,1.54542 3.47898,2.44517 4.16172,6.5854 0.58569,3.55174 0.6267,4.45032 0.25455,5.57787 -0.29859,0.904777 -0.30036,1.324757 -0.008,2.029297 0.27387,0.66123 0.28284,1.04749 0.035,1.51059 -0.18315,0.34222 -0.35223,1.80572 -0.37575,3.25222 -0.0234,1.44651 -0.16668,2.87922 -0.31809,3.18379 -0.15144,0.30457 -0.38784,1.78957 -0.52533,3.3 -0.13752,1.51043 -0.38967,3.28623 -0.56034,3.94623 -0.86412,3.34167 -1.00998,4.08087 -1.24317,6.3 -0.13869,1.32 -0.47868,3.2775 -0.75552,4.35 -0.27684,1.0725 -0.55218,2.8275 -0.61191,3.9 -0.10017,1.79949 -0.30225,2.81643 -1.04748,5.2713 -0.15381,0.5067 -0.28287,1.5192 -0.28683,2.25 -0.004,0.73077 -0.1527,1.8687 -0.3306,2.5287 -0.1779,0.66 -0.43299,2.55 -0.56685,4.2 -0.13389,1.65 -0.40254,3.675 -0.59703,4.5 -0.19449,0.825 -0.34266,1.93875 -0.32931,2.475 0.0132,0.53625 0.0307,1.34625 0.0386,1.8 0.008,0.45375 -0.14262,1.77 -0.33441,2.925 -0.45102,2.7162 -0.47322,13.783857 -0.0331,16.499997 0.5367,3.31209 0.8961,5.3037 1.19094,6.6 0.54693,2.40468 3.35109,7.64373 4.76106,8.89512 0.30681,0.27231 1.07703,0.70959 1.71159,0.9717 1.06092,0.43824 1.27812,0.43605 2.7,-0.0273 1.64349,-0.53556 4.18377,-2.6619 5.48289,-4.58952 0.38922,-0.5775 1.24896,-1.85247 1.91052,-2.83326 0.66156,-0.98079 1.206,-1.99329 1.20987,-2.25 0.004,-0.25671 0.40014,-1.14174 0.88062,-1.96674 0.48051,-0.825 1.28433,-2.26641 1.78629,-3.20316 0.50196,-0.93672 1.05066,-1.78842 1.21935,-1.8927 0.16869,-0.10425 0.3132,-0.48534 0.32112,-0.84684 0.008,-0.36153 0.24417,-1.07832 0.525,-1.59294 0.28083,-0.51459 0.82518,-1.509177 1.20963,-2.210157 0.61059,-1.11327 0.67443,-1.52634 0.50442,-3.26436 -0.25539,-2.61108 -0.29766,-8.1225 -0.0797,-10.38984 0.0952,-0.99 0.52251,-2.83629 0.94965,-4.10289 0.42711,-1.2666 0.77853,-2.5491 0.78096,-2.85 0.006,-0.74874 0.75576,-2.84109 1.65174,-4.6092 0.40914,-0.80739 0.74388,-1.71252 0.74388,-2.01141 0,-0.66588 1.91901,-4.72923 2.36316,-5.00373 0.17628,-0.10896 0.46488,-0.73419 0.64131,-1.38939 0.17643,-0.6552 0.70137,-1.62825 1.16655,-2.16231 0.46518,-0.53409 1.05318,-1.3764 1.30665,-1.87179 0.2535,-0.49539 0.74472,-1.15755 1.09161,-1.47147 0.34689,-0.31395 0.63072,-0.79815 0.63072,-1.07601 0,-1.97991 10.53759,-12.6018 12.50181,-12.6018 0.26133,0 1.23408,-0.43852 2.16168,-0.97449 1.61907,-0.93553 1.83759,-0.97867 5.4645,-1.07892 4.29753,-0.11879 5.60154,0.25568 7.40292,2.1258 1.02654,1.06575 2.16909,3.72105 2.16909,5.04105 0,0.42453 0.19821,1.03392 0.44046,1.35423 0.47871,0.63291 0.59817,4.0275 0.17886,5.08233 -0.13119,0.33 -0.13482,0.87807 -0.008,1.21791 0.12906,0.34596 0.0567,1.27017 -0.16431,2.1 -0.21714,0.81516 -0.60285,2.26296 -0.85713,3.21735 -0.25428,0.95442 -0.85275,2.57442 -1.32996,3.6 -0.47721,1.02561 -1.14237,2.47224 -1.47813,3.21474 -0.33576,0.7425 -1.14762,1.9575 -1.80411,2.7 -0.65646,0.7425 -1.5663,2.0925 -2.02185,3 -0.45552,0.9075 -1.55442,2.41623 -2.442,3.35274 -0.88758,0.93648 -1.61376,1.8609 -1.61376,2.05425 0,0.56451 -6.1587,7.06641 -11.06238,11.67891 -2.42481,2.28078 -2.50272,2.56107 -1.4382,5.17416 0.57192,1.403907 1.59444,2.832987 3.44307,4.812087 1.66935,1.78713 4.33287,2.92785 6.83637,2.92785 1.78938,0 2.23311,-0.15228 6.12513,-2.10201 2.30781,-1.15608 4.19601,-2.25429 4.19601,-2.44041 0,-0.18612 1.19736,-1.56897 2.66079,-3.072987 1.46346,-1.50402 2.84721,-3.09477 3.075,-3.53499 0.22782,-0.44022 1.12296,-1.83528 1.98921,-3.10014 0.86625,-1.26486 1.575,-2.439 1.575,-2.60925 0,-0.17025 0.60654,-1.2219 1.3479,-2.33706 0.74133,-1.11513 1.95936,-3.17697 2.70672,-4.58184 l 1.35882,-2.55432 -0.3099,-2.73576 c -0.17046,-1.50465 -0.23037,-3.30846 -0.13314,-4.00848 0.40104,-2.88735 1.1532,-5.85771 1.8201,-7.18779 0.39021,-0.77826 0.71082,-1.65576 0.71244,-1.95 0.003,-0.48147 1.04496,-2.83317 1.76625,-3.98496 0.15498,-0.2475 0.76212,-1.4625 1.34922,-2.7 0.58707,-1.2375 1.19745,-2.4525 1.35642,-2.7 0.15897,-0.2475 0.64131,-1.1925 1.07184,-2.1 0.98049,-2.06667 2.66358,-5.03667 4.12833,-7.28491 0.61875,-0.94971 1.125,-1.83172 1.125,-1.96003 0,-0.12831 0.55143,-0.76694 1.22541,-1.41918 0.67398,-0.65223 1.49883,-1.72588 1.83303,-2.38588 0.33417,-0.66 0.92202,-1.5375 1.30638,-1.95 0.38433,-0.4125 1.07823,-1.31202 1.542,-1.99893 2.00463,-2.96928 13.83093,-14.201067 14.95272,-14.201067 0.0906,0 0.53055,-0.26727 0.97761,-0.59393 0.44706,-0.32665 1.74885,-0.9311 2.89287,-1.34322 1.97115,-0.71008 2.14899,-0.72587 3.39831,-0.30171 2.52138,0.85602 4.21878,1.91442 6.44667,4.01972 1.27557,1.20537 1.425,1.48354 1.425,2.65258 0,0.7183 0.12921,1.54743 0.28713,1.84249 0.22521,0.42081 0.0893,0.72383 -0.63021,1.40528 -0.50451,0.47784 -1.03839,1.138787 -1.18641,1.468787 -0.14799,0.33 -0.43551,0.83318 -0.63894,1.11817 -0.31665,0.44361 -0.18726,0.70428 0.89928,1.81136 0.69804,0.71125 1.26915,1.44283 1.26915,1.62575 0,0.32731 1.32768,1.54323 2.80245,2.56658 0.43152,0.29943 1.02642,1.25507 1.39569,2.24205 0.5625,1.50336 0.62373,2.13719 0.48576,5.02815 -0.19236,4.03151 -0.92052,8.24756 -2.23404,12.93527 -0.44187,1.57686 -0.58014,2.8965 -0.53439,5.1 0.06,2.89041 0.0999,3.04737 1.44405,5.67267 1.55622,3.03951 2.52051,4.06758 4.35471,4.64259 1.09332,0.34275 1.4793,0.32868 2.8557,-0.10425 1.80927,-0.5691 3.53007,-1.53435 3.53007,-1.98018 0,-0.16533 0.53391,-0.63768 1.18644,-1.04961 0.69045,-0.43584 1.7436,-1.59756 2.51913,-2.77875 0.73296,-1.11639 1.75155,-2.42631 2.26353,-2.91093 0.51201,-0.48462 0.9309,-1.0962 0.9309,-1.35906 0,-0.26289 0.6066,-1.41888 1.34799,-2.56887 0.74139,-1.15002 1.34889,-2.34009 1.35,-2.64462 0,-0.30453 0.25005,-0.91203 0.5532,-1.35 0.30315,-0.43797 0.63969,-1.04112 0.74787,-1.34034 0.10818,-0.29919 0.33522,-0.4584 0.50454,-0.35376 0.68004,0.4203 2.68242,5.05635 2.69202,6.23274 0.003,0.29424 -0.33312,1.20102 -0.74562,2.01504 -0.4125,0.81402 -0.75171,1.7208 -0.75381,2.01504 -0.003,0.29421 -0.40707,1.33023 -0.9,2.30223 -0.4929,0.972 -0.89619,2.02164 -0.89619,2.3325 0,0.31086 -0.4725,1.50348 -1.05,2.65023 -0.5775,1.14675 -1.05,2.35428 -1.05,2.68338 0,0.3291 -0.24726,1.04124 -0.54942,1.5825 -0.30219,0.54126 -0.80145,1.65912 -1.10943,2.48412 -0.30801,0.825 -0.79998,1.905 -1.09332,2.4 -0.29334,0.495 -0.87987,1.54812 -1.30338,2.34027 -0.42354,0.79218 -1.3041,2.20968 -1.95687,3.15 -0.65274,0.94035 -1.18698,1.92945 -1.18719,2.19801 -2.1e-4,0.26853 -0.22125,0.67155 -0.49119,0.89559 -0.26994,0.22401 -0.82254,0.93285 -1.22802,1.57515 -1.21188,1.91973 -3.40065,3.82254 -5.62272,4.88805 -3.2241,1.54602 -5.9436,1.287 -7.64391,-0.72807 -2.82099,-3.34314 -3.1863,-3.91356 -3.69936,-5.7768 -0.53622,-1.94745 -0.83061,-2.83806 -1.58403,-4.7922 -0.22266,-0.5775 -0.4122,-1.6575 -0.42123,-2.4 -0.009,-0.7425 -0.23808,-2.025 -0.50898,-2.85 -0.44784,-1.36392 -0.59745,-2.2893 -1.17606,-7.275 -0.12219,-1.05276 -0.32037,-1.575 -0.59775,-1.575 -0.44607,0 -1.62714,2.06871 -1.62714,2.85 0,0.26064 -0.24879,0.97476 -0.55284,1.58694 -0.30408,0.61218 -0.71937,1.78806 -0.92292,2.61306 -0.20355,0.825 -0.68418,2.2425 -1.06806,3.15 -0.38391,0.9075 -0.87045,2.2575 -1.0812,3 -0.21075,0.7425 -0.69633,1.98675 -1.0791,2.76504 -0.38274,0.77826 -0.69588,1.69287 -0.69588,2.03247 0,0.3396 -0.48126,1.52535 -1.0695,2.63499 -0.58821,1.10961 -1.32033,2.49 -1.62693,3.0675 -0.3066,0.5775 -0.80235,1.64931 -1.10169,2.38182 -0.29934,0.73251 -0.99294,1.86888 -1.54137,2.525277 -0.5484,0.65643 -1.18854,1.56366 -1.42254,2.01612 -0.60375,1.1676 -3.60543,2.97786 -4.92858,2.9724 -3.39015,-0.0138 -7.29081,-2.56404 -13.41114,-8.767647 -3.42327,-3.46986 -4.74531,-5.03181 -5.46171,-6.45297 -0.51984,-1.03125 -1.05339,-1.875 -1.18566,-1.875 -0.33318,0 -1.55088,3.01119 -1.55088,3.83511 0,0.37044 -0.6075,1.93071 -1.35,3.46725 -0.7425,1.53657 -1.35,3.02346 -1.35,3.30423 0,0.60186 -1.45947,3.564957 -2.54061,5.158107 -0.41766,0.61545 -0.75939,1.31211 -0.75939,1.54812 0,0.23598 -0.43875,1.06089 -0.975,1.83312 -1.26078,1.8156 -1.3944,2.03427 -2.52771,4.13667 -0.64938,1.20471 -2.17752,2.9766 -4.8,5.56557 -3.28521,3.24327 -4.21686,3.9819 -6.3768,5.05575 -4.96089,2.46639 -8.67828,3.16665 -13.07049,2.46216 -0.99,-0.15882 -2.34,-0.51561 -3,-0.79293 -2.61378,-1.09824 -7.95,-5.14353 -7.95,-6.02676 0,-0.18078 -0.48723,-0.79392 -1.0827,-1.36254 -1.56396,-1.49337 -3.25722,-4.24566 -4.30092,-6.99081 -0.4023,-1.05807 -1.34748,-1.04094 -1.76343,0.0319 -0.52203,1.34646 -1.28331,3.72012 -1.71234,5.33904 -0.22068,0.83274 -1.0176,2.78043 -1.77093,4.32825 -0.75333,1.54779 -1.36968,3.04527 -1.36968,3.32775 0,0.62262 -2.06328,4.85715 -3.13908,6.44241 -0.42687,0.62904 -0.86079,1.48107 -0.96429,1.89339 -0.30261,1.20564 -1.78899,3.20016 -4.53657,6.08742 -2.63235,2.76612 -3.23346,3.20244 -5.49897,3.99141 -2.40672,0.83817 -5.43618,0.40719 -7.50795,-1.06803 -1.37205,-0.97698 -2.89056,-3.5019 -4.88883,-8.12889 -0.26421,-0.61176 -0.59382,-1.18239 -0.73248,-1.2681 -0.23937,-0.1479 -1.21482,-3.12204 -1.87593,-5.71965 -0.74514,-2.92776 -0.97083,-3.73173 -1.6425,-5.85102 -0.39237,-1.23807 -0.7134,-2.68296 -0.7134,-3.2109 0,-1.19583 -0.56718,-2.48808 -1.09206,-2.48808 -0.46155,0 -1.3368,1.6731 -1.88325,3.6 -0.41619,1.46751 -1.18173,3.34962 -2.84982,7.00614 -0.59118,1.29588 -1.07487,2.6019 -1.07487,2.90229 0,0.30039 -0.85341,2.27763 -1.89648,4.39386 -1.04304,2.11623 -2.29179,4.72521 -2.775,5.79771 -0.48318,1.0725 -1.14852,2.37333 -1.47852,2.89077 -1.13151,1.77414 -1.782,2.96022 -2.13723,3.89706 -0.55281,1.45785 -2.30433,3.79188 -3.40479,4.53717 -1.03113,0.69831 -2.86734,0.89766 -3.83706,0.41655 -0.2865,-0.14214 -1.42317,-0.67644 -2.52591,-1.18734 -3.31482,-1.5357 -5.93586,-3.79077 -9.77913,-8.41359 -1.15767,-1.39254 -2.46189,-3.27819 -2.47536,-3.57894 -0.015,-0.33225 -1.4319,-1.86168 -1.72485,-1.86168 -0.261,0 -0.90075,1.32528 -2.17224,4.5 -0.36345,0.9075 -0.91566,2.21634 -1.22712,2.90853 -0.31149,0.69222 -0.56631,1.47072 -0.56631,1.73001 0,0.58707 -3.16803,6.94449 -3.59076,7.20576 -0.17007,0.10512 -0.30924,0.40542 -0.30924,0.66735 0,0.9066 -3.94272,6.11601 -5.97462,7.89408 -0.28644,0.25068 -0.76593,0.82989 -1.06554,1.28715 -1.27185,1.94109 -4.99617,3.66609 -8.69652,4.02795 -3.3072,0.32343 -7.60386,-1.4589 -10.44519,-4.33284 -2.83059,-2.86311 -5.23329,-6.22578 -7.56531,-10.58799 -0.68295,-1.27755 -1.42971,-2.29191 -1.72782,-2.34699 -0.28875,-0.0534 -0.525,0.052 -0.525,0.23412 0,0.29112 -4.1454,9.03615 -4.84119,10.21287 -0.14634,0.2475 -0.83862,1.5975 -1.5384,3 -0.69975,1.4025 -1.71063,3.19803 -2.24637,3.99003 -0.53571,0.79203 -0.97404,1.67007 -0.97404,1.95123 0,1.25076 -6.31479,8.14191 -8.46504,9.23766 -1.86495,0.95037 -5.09121,1.01067 -6.8223,0.12753 -2.09592,-1.06926 -3.91491,-2.44062 -4.34793,-3.27795 -0.23385,-0.45222 -0.64644,-1.00584 -0.91686,-1.23027 -0.47835,-0.39699 -2.24787,-3.99327 -2.24787,-4.5684 0,-0.15798 -0.28656,-0.68961 -0.63678,-1.18146 -0.35022,-0.49185 -0.77619,-1.3902 -0.94659,-1.99632 -0.27648,-0.98349 -0.77637,-7.58352 -0.84465,-11.15205 -0.03,-1.56435 0.3915,-4.48236 0.7245,-5.01654 0.12567,-0.2016 0.28455,-1.3491 0.3531,-2.55 0.13818,-2.42091 0.79746,-5.64729 1.49523,-7.31727 0.25035,-0.59922 0.45519,-1.41843 0.45519,-1.82052 0,-0.40206 0.405,-1.93011 0.9,-3.39567 0.89424,-2.64759 1.1058,-3.75549 0.675,-3.53469 -0.12375,0.0634 -0.9,0.41778 -1.725,0.78747 -4.05327,1.81629 -6.22347,2.93115 -6.67323,3.42816 -0.27231,0.30087 -0.97473,0.77223 -1.56093,1.04739 -0.58623,0.27519 -1.96272,1.01478 -3.05889,1.64352 -1.77705,1.01928 -2.01351,1.26429 -2.18181,2.26068 -0.1038,0.61461 -0.18327,1.35372 -0.17658,1.64247 0.007,0.28875 0.021,0.82875 0.0319,1.2 0.021,0.72318 -0.26541,2.00547 -1.08924,4.875 -0.28422,0.99 -0.621,2.34 -0.74841,3 -0.33864,1.75452 -0.71046,2.81016 -1.62627,4.61745 -0.44925,0.88656 -1.06665,2.39394 -1.37199,3.34974 -0.51969,1.62672 -1.99638,4.63584 -3.31794,6.7611 -0.31749,0.51057 -0.70176,1.52307 -0.85395,2.25 -0.38319,1.83027 -1.026,3.49395 -2.42523,6.27687 -0.65856,1.30983 -1.19739,2.65836 -1.19739,2.99673 0,0.64977 -1.15014,2.95062 -2.84832,5.69811 -0.56091,0.9075 -1.21341,2.06667 -1.44996,2.57592 -0.41481,0.89301 -2.17269,3.52179 -3.86814,5.78451 -0.44904,0.59925 -1.04652,1.42707 -1.32774,1.83957 -0.84318,1.23675 -3.18465,3.61293 -4.30584,4.36959 -0.5775,0.38976 -1.62939,1.11912 -2.33751,1.62081 -2.06862,1.46556 -4.30053,2.50542 -5.91249,2.75469 -0.825,0.12756 -2.445,0.37668 -3.6,0.55362 -4.4619,0.68349 -8.39142,-0.21219 -11.92779,-2.71872 -0.69972,-0.49596 -1.74471,-1.21821 -2.32221,-1.60497 -1.101,-0.7374 -1.95474,-1.6188 -2.78478,-2.87502 -0.27258,-0.4125 -0.90558,-1.32939 -1.40667,-2.03751 -0.50112,-0.70815 -1.23345,-1.92315 -1.62741,-2.7 -0.39396,-0.77688 -1.00089,-1.66965 -1.34871,-1.98399 -0.34785,-0.31431 -0.63243,-0.69429 -0.63243,-0.84438 0,-0.15009 -0.28662,-0.93918 -0.63693,-1.7535 -1.01772,-2.36571 -1.56888,-1.98042 -2.82396,1.97406 -0.58554,1.84494 -1.56903,3.99057 -3.22935,7.04532 -0.22419,0.4125 -0.92127,1.7625 -1.54908,3 -2.50953,4.94676 -4.1859,8.02206 -5.15124,9.45 -0.55776,0.825 -1.24029,1.8375 -1.51674,2.25 -0.27645,0.4125 -0.92943,1.2225 -1.45107,1.8 -0.52164,0.5775 -1.23051,1.5225 -1.57524,2.1 -1.22484,2.05182 -2.8386,3.32178 -7.03389,5.53545 -1.82775,0.96441 -2.244905,1.06455 -4.434995,1.06455 -2.95305,0 -4.75578,-0.79089 -6.86172,-3.01032 -4.59474,-4.84242 -5.09493,-6.59313 -5.73975,-20.08968 -0.25581,-5.35392 -0.48603,-7.09662 -0.97776,-7.40052 -0.42639,-0.26352 -1.41828,1.00854 -1.41828,1.81887 0,0.35853 -0.4725,1.38528 -1.05,2.28165 -0.5775,0.89637 -1.05069,1.97181 -1.05153,2.38989 0,0.41805 -0.33414,1.30011 -0.74064,1.96011 -0.4065,0.66 -0.74331,1.48491 -0.74847,1.83315 -0.005,0.34821 -0.35268,1.13904 -0.77229,1.75737 -0.98079,1.44528 -2.99469,5.48001 -3.23673,6.48462 -0.10269,0.42633 -0.80835,1.70214 -1.56813,2.83512 -0.75975,1.13301 -1.64172,2.5392 -1.95993,3.12489 -0.31821,0.58566 -0.69576,1.26735 -0.83901,1.51485 -0.14325,0.2475 -0.48969,0.99 -0.76986,1.65 -0.72381,1.70505 -4.83612,7.85508 -6.28953,9.40605 -2.37435,2.53374 -4.69587,3.663 -7.52388,3.65985 -3.79602,-0.004 -6.62541,-1.84836 -8.309464,-5.4159 -1.35231,-2.86476 -1.78656,-5.01198 -2.0628,-10.2 -0.13617,-2.5575 -0.33516,-5.36265 -0.4422,-6.23367 -0.11442,-0.93099 -0.0694,-1.73466 0.1092,-1.95 0.44271,-0.53379 0.5712,-7.02039 0.14745,-7.44414 -0.49392,-0.49392 -0.99099,-0.0612 -0.99999,0.87051 -0.008,0.8808 -1.0539,4.16037 -2.05821,6.45717 -0.34869,0.79743 -0.63399,1.79001 -0.63399,2.20575 0,0.83577 -1.5372,5.61597 -2.24793,6.99039 -0.24864,0.48081 -0.45207,1.29474 -0.45207,1.80876 0,0.51399 -0.47472,1.962 -1.05492,3.21777 -0.5802,1.25577 -1.13952,2.83317 -1.24296,3.50535 -0.19026,1.23618 -1.94808,5.07969 -2.47101,5.40288 -0.15612,0.0965 -0.51918,0.81528 -0.80682,1.59732 -0.72567,1.9731 -1.72266,2.94711 -4.24074,4.143 -3.16362,1.50246 -6.05484,1.38855 -9.49464,-0.37413 -2.05449,-1.05279 -5.38323,-4.03542 -6.67404,-5.98008 -0.57039,-0.85932 -1.36956,-1.78029 -1.77597,-2.04657 -0.40638,-0.26628 -0.7389,-0.62319 -0.7389,-0.79314 0,-0.16995 -0.3375,-0.80568 -0.7499999,-1.41273 -0.4125,-0.60705 -0.75,-1.33443 -0.75,-1.61637 0,-0.66261 -0.45639,-0.93408 -1.18281,-0.70353 -0.57003,0.18093 -2.54202,3.42018 -2.8797,4.73034 -0.0957,0.37131 -0.56616,1.21512 -1.04547,1.87512 -0.47934,0.66 -1.21482,1.8075 -1.63443,2.55 -0.41961,0.7425 -0.88035,1.5525 -1.02387,1.8 -0.14349,0.2475 -0.48546001,0.9225 -0.75993001,1.5 -0.846,1.7802 -2.02319999,3.68382 -3.22448999,5.21418 -0.6321,0.80532 -1.1493,1.6305 -1.1493,1.83375 0,0.3876 -0.88278,1.63068 -3.05208,4.29786 -2.5548,3.14112 -5.4341101,5.69211 -7.4479201,6.59868 -4.74366,2.13543 -3.89283,1.99758 -12.9,2.08989 -8.07954,0.0828 -9.40962,0.22746 -10.5,1.14183 -0.84219,0.70623 -3.0624,1.31154 -3.65244,0.99573 -0.30177,-0.16149 -1.86468,-0.255 -3.47313,-0.20778 l -2.92443,0.0859 -0.0584,4.2 c -0.0322,2.31 -0.21606,4.68669 -0.40866,5.28153 -0.2127,0.65676 -0.26787,1.65822 -0.14049,2.55 0.11535,0.80766 0.19701,2.51472 0.1815,3.79347 -0.0351,2.88987 -0.0481,7.56033 -0.0264,9.45 0.009,0.78375 -0.12057,2.91 -0.28794,4.725 -0.16737,1.815 -0.42321,4.785 -0.56853,6.6 -0.29121,3.63738 -0.82068,6.13587 -1.96425,9.26892 -1.51311,4.14549 -2.97975,5.42172 -5.36739,4.67064 -0.69264,-0.21789 -1.5105,-0.60843 -1.81746,-0.86787 -0.68505,-0.57897 -2.34522,-3.8904 -2.86857,-5.72169 -0.21222,-0.7425 -0.50676,-1.66011 -0.65457,-2.03913 -0.14784,-0.37899 -0.26877,-1.09251 -0.26877,-1.58553 0,-0.49305 -0.21036,-1.21749 -0.46746,-1.60986 -0.40494,-0.61803 -0.44934,-1.91019 -0.33195,-9.66444 0.0967,-6.3885 0.27384,-9.72402 0.61881,-11.65104 0.26583,-1.485 0.54363,-3.546 0.61734,-4.57998 0.0737,-1.03398 0.23049,-2.0361 0.34839,-2.22687 0.11793,-0.1908 0.31863,-0.82983 0.44604,-1.42002 0.12738,-0.59022 0.50604,-2.01813 0.84147,-3.17313 0.33546,-1.155 0.61383,-2.66739 0.61863,-3.36087 0.005,-0.69351 0.16053,-1.63851 0.34608,-2.1 0.18555,-0.46152 0.44538,-1.10913 0.57741,-1.43913 0.13203,-0.33 0.30147,-0.9375 0.3765,-1.35 0.0751,-0.4125 0.35877,-1.56 0.63045,-2.55 0.27168,-0.99 0.5658,-2.66727 0.65355,-3.72726 0.0878,-1.05999 0.28674,-2.16486 0.44214,-2.45529 0.15543,-0.2904 0.2826,-0.95076 0.2826,-1.46745 0,-0.51669 0.14412,-1.20873 0.32025,-1.53786 0.17616,-0.32913 0.36828,-1.6365 0.42693,-2.90526 0.0587,-1.26879 0.32832,-3.52188 0.59919,-5.00688 0.2709,-1.485 0.54981,-3.88737 0.6198,-5.33862 0.07,-1.45122 0.26619,-2.89818 0.43599,-3.21543 0.1698,-0.31725 0.37011,-1.76235 0.44514,-3.21138 0.0751,-1.449 0.27783,-3.44457 0.45063,-4.43457 0.1728,-0.99 0.4446,-3.69 0.60399,-6 0.15942,-2.31 0.44307,-4.57125 0.63036,-5.025 0.25887,-0.62718 0.25155,-1.0398 -0.0305,-1.72083 -0.35436,-0.85548 -0.31131,-1.75101 0.15519,-3.22917 0.15381,-0.48726 0.0922,-0.675 -0.22125,-0.675 -0.23886,0 -0.58605,0.30375 -0.77154,0.675 -0.7245,1.45011 -1.26414,3.03018 -1.26414,3.70146 0,0.38676 -0.19443,1.14651 -0.43209,1.68837 -1.15296,2.62884 -2.26791,5.78109 -2.26791,6.4119 0,0.38661 -0.19332,1.14624 -0.42957,1.6881 -1.23513,2.83266 -2.57043,6.4707 -2.57043,7.00317 0,0.33255 -0.44307,1.67955 -0.9846,2.99331 -0.54153,1.31379 -1.16595,2.99619 -1.38765,3.73869 -0.22167,0.7425 -0.8712,2.4975 -1.44342,3.9 -1.64319,4.02759 -2.18433,5.50863 -2.18433,5.97837 0,0.37113 -4.90353,10.69506 -5.70987,12.02163 -0.15045,0.2475 -0.50856,0.9225 -0.79578,1.5 -0.97311,1.95657 -2.59773,4.64649 -3.26139,5.4 -0.36333,0.4125 -0.82113,1.25256 -1.01733,1.86678 -0.1962,0.61422 -1.19124,2.38263 -2.21118,3.92982 -1.01994,1.54719 -1.98945,3.01842 -2.15445,3.26946 -0.84768,1.28958 -2.89629,3.83127 -3.25833,4.04256 -0.22749,0.13275 -0.70668,0.82056 -1.06491,1.52847 -0.3582,0.70791 -0.94953,1.40232 -1.31403,1.54317 -0.3645,0.14085 -1.00023,0.62145 -1.41273,1.06797 -1.33974,1.45032 -3.94326,2.55177 -6.03165,2.55177 -2.67948,0 -3.94692,-0.49215 -5.96085,-2.31462 -1.821991,-1.64883 -2.207071,-2.38473 -2.713411,-5.18538 -0.13422,-0.7425 -0.41058,-1.89 -0.6141,-2.55 -0.51657,-1.67523 -0.6993,-6.03771 -0.29391,-7.01643 0.18261,-0.44085 0.39006,-2.21502 0.46098,-3.94257 0.13719,-3.34068 0.54339,-6.60924 0.89139,-7.17228 0.11598,-0.18771 0.32811,-1.58496 0.47136,-3.105 0.28062,-2.97753 0.63645,-5.06217 1.18863,-6.96372 0.913891,-3.14721 0.911641,-5.55 -0.005,-5.55 -0.15711,0 -0.7689,0.91125 -1.35954,2.025 -0.59061,1.11375 -1.6647,3.0375 -2.38686,4.275 -1.48983,2.55303 -2.07444,3.72138 -6.15469,12.3 -1.60883,3.3825 -3.08111,6.69 -3.27174,7.35 -0.19062,0.66 -0.80047,2.2125 -1.35522,3.45 -2.0532,4.58016 -2.8338,6.47253 -3.03188,7.35 -1.33171,5.89941 -5.08779,13.07538 -7.73682,14.78112 -1.42596,0.91818 -3.05518,1.55778 -3.98483,1.56435 -1.91927,0.0135 -4.02519,-1.78263 -5.27059,-4.49547 -1.46044,-3.18126 -1.48346,-3.31308 -1.31466,-7.52892 0.16864,-4.21158 0.22234,-6.21669 0.19005,-7.09608 -0.0298,-0.81222 0.46637,-4.15692 1.03475,-6.975 0.28287,-1.4025 0.56872,-3.67569 0.63522,-5.05155 0.0665,-1.37586 0.25426,-2.75073 0.41725,-3.05529 0.16298,-0.30453 0.29634,-0.90897 0.29634,-1.34316 0,-0.43419 0.13286,-1.0377 0.29525,-1.34112 0.16238,-0.30342 0.38479,-1.51512 0.49423,-2.69268 0.19199,-2.06574 0.16908,-2.17224 -0.65137,-3.02862 -0.4677,-0.48816 -1.13393,-0.88758 -1.48051,-0.88758 -0.61137,0 -3.4576,2.58636 -3.4576,3.14193 0,0.22923 -1.40319,3.36 -3.90289,8.70807 -1.82607,3.90684 -2.69711,5.99898 -2.69711,6.47814 0,0.29898 -0.1224,0.85374 -0.27199,1.23273 -0.92673,2.34792 -1.64178,4.10481 -1.98988,4.88913 -0.21969,0.495 -0.82282,1.845 -1.34027,3 -1.29168,2.88309 -2.39786,6.23286 -2.39786,7.26123 0,0.47046 -0.31758,1.86417 -0.70574,3.09708 -0.38815,1.23294 -1.13912,3.62781 -1.66882,5.32194 -1.33221,4.26081 -2.21507,6.13941 -3.32364,7.0722 -0.83601,0.70347 -1.20531,0.79755 -3.13044,0.79755 -1.84655,0 -2.33958,-0.11418 -3.20199,-0.74154 -0.56064,-0.40785 -1.86311,-1.30713 -2.89436,-1.99839 -1.03125,-0.69126 -1.875,-1.3731 -1.875,-1.51515 0,-0.14208 -0.50625,-0.82905 -1.125,-1.52661 -1.34116,-1.512 -1.51983,-1.7904 -3.07648,-4.79331 -0.66287,-1.27875 -1.33614,-2.325 -1.49615,-2.325 -0.16002,0 -0.37564,-0.3375 -0.47918,-0.75 -0.30245,-1.20507 -1.15626,-0.90639 -2.35844,0.825 -2.09425,3.01614 -2.60581,3.68211 -3.70686,4.82577 -2.07272,2.15298 -5.23117,3.92892 -9.09447,5.11368 -1.52598,0.46797 -1.7357,0.63711 -2.20243,1.77639 -1.07111,2.6145 -5.06143,10.61907 -6.01156,12.05916 -0.54431,0.825 -1.34061,1.82727 -1.76954,2.22729 -0.42894,0.40002 -0.77989,0.89427 -0.77989,1.09833 0,0.34749 -0.28936,0.61242 -2.74736,2.5155 -1.31538,1.01844 -4.64997,2.70894 -6.10264,3.09381 -1.59568,0.42279 -7.43548,0.40767 -9.22714,-0.024 -1.65333,-0.39822 -6.63029,-2.74452 -8.4355,-3.9768 -1.3082,-0.89259 -6.78778,-6.34017 -6.78778,-6.74763 0,-0.13158 -0.20843,-0.46956 -0.46319,-0.75108 -0.25475,-0.28149 -0.761,-1.09539 -1.125,-1.80864 -0.36399,-0.71322 -0.82661,-1.34724 -1.02805,-1.40886 -0.36328,-0.11118 -1.44062,1.977 -3.98917,7.73208 -2.40231,5.42484 -5.3429,11.25489 -6.25523,12.4017 -0.50393,0.63342 -1.18897,1.88067 -1.52231,2.77161 -0.33335,0.89094 -1.08983,2.53269 -1.68106,3.6483 -1.91521,3.61386 -2.17148,4.11252 -2.66137,5.17839 -0.6895,1.50021 -3.65469,6.30774 -4.45715,7.22649 -0.84419,0.96654 -3.72273,5.23107 -5.13118,7.60179 -0.58106,0.97806 -1.67094,2.46306 -2.42194,3.3 -2.34789,2.61657 -5.08754,5.89758 -5.75174,6.88833 -0.35056,0.5229 -1.97056,2.30907 -3.6,3.96927 -1.62943,1.6602 -3.28026,3.44943 -3.66849,3.97605 -0.38823,0.52665 -1.60323,1.54776 -2.7,2.26914 -1.09677,0.72141 -2.53412,1.8786 -3.19412,2.57154 -1.26911,1.33248 -4.9131,3.89739 -5.53706,3.89739 -0.20316,0 -1.1603,0.6015 -2.12698,1.33668 -2.18611,1.66254 -3.50181,2.33907 -6.48817,3.33612 -1.29128,0.43113 -2.56092,0.97362 -2.82141,1.20555 -0.26049,0.2319 -0.69289,0.42165 -0.96089,0.42165 -0.26799,0 -0.79736,0.12093 -1.17637,0.26877 -0.37902,0.14781 -1.29662,0.42612 -2.03912,0.61845 -0.7425,0.19236 -1.755,0.49389 -2.25,0.67008 -1.08041,0.38457 -3.54363,0.76434 -7.2,1.11009 -1.485,0.14043 -2.97,0.34197 -3.3,0.44787 -0.33,0.1059 -0.8025,0.0578 -1.05,-0.10677 z m 103.52612,-81.90849 c 2.00109,0 4.51379,-1.56951 7.97135,-4.9791 1.82429,-1.79901 3.81715,-4.04016 4.42857,-4.98036 1.24697,-1.91751 1.20298,-2.25768 -0.51393,-3.97458 -1.0862,-1.08621 -2.75969,-4.62975 -3.05365,-6.46596 -0.11886,-0.7425 -0.43163,-1.6875 -0.69503,-2.1 -0.2634,-0.4125 -0.61273,-1.3575 -0.77629,-2.1 -0.40241,-1.82676 -0.32077,-15.89388 0.10533,-18.15 0.52006,-2.75355 0.52923,-3.9 0.0312,-3.9 -0.47236,0 -5.9501,6.18051 -7.28472,8.21931 -0.28108,0.42939 -0.91536,1.32069 -1.40952,1.98069 -1.95654,2.61318 -2.80244,3.90663 -3.80121,5.81223 -0.573,1.09329 -1.59422,3.00027 -2.26939,4.23777 -1.86325,3.41511 -2.688,6.23553 -2.87679,9.83775 -0.13533,2.58231 -0.0847,3.14706 0.30906,3.45 0.31668,0.24363 0.52071,1.04997 0.62301,2.46225 0.33241,4.58892 0.90447,7.32057 1.82833,8.73057 0.85047,1.29798 4.4441,2.63724 5.80209,2.16234 0.38199,-0.13362 1.09371,-0.24291 1.58159,-0.24291 z m 171.638701,-62.52498 c 0.54183,-0.23373 1.49859,-0.64848 2.12613,-0.92163 2.79633,-1.21731 4.57029,-1.65339 6.72573,-1.65339 1.2225,0 2.48112,0.13827 2.79687,0.30726 0.68439,0.36627 2.08644,0.0769 2.08644,-0.43065 0,-0.1971 0.51873,-1.43121 1.15272,-2.74248 0.63399,-1.31127 1.25061,-2.90628 1.37022,-3.54447 0.11964,-0.63816 0.59886,-1.98816 1.06494,-3 1.50063,-3.25764 1.80033,-4.07127 1.64697,-4.47096 -0.0827,-0.21555 0.1368,-1.26417 0.4878,-2.33031 1.06056,-3.22116 1.23429,-3.9453 1.50885,-6.28839 0.64404,-5.49654 0.65238,-5.99448 0.12828,-7.66068 -1.37214,-4.36239 -2.91009,-4.75047 -7.40748,-1.86912 -1.32846,0.8511 -2.31084,2.10519 -4.96725,6.3411 -0.53073,0.84627 -1.18584,2.0112 -1.45578,2.5887 -0.26997,0.5775 -1.2141,2.53683 -2.09811,4.35408 -0.88398,1.81725 -1.82889,4.17975 -2.09979,5.25 -0.46185,1.82466 -0.70869,2.51901 -2.23137,6.27654 -0.33,0.81432 -0.6,1.86198 -0.6,2.32806 0,0.46611 -0.47025,2.19609 -1.04502,3.84441 -0.96864,2.77791 -1.10817,4.04691 -0.44493,4.04691 0.14826,0 0.71292,-0.19125 1.25478,-0.42498 z M 141.819,159.5919 c 1.84116,-1.88421 3.62136,-3.94296 3.95601,-4.575 0.61146,-1.15491 3.16764,-5.03895 4.18215,-6.35463 0.29916,-0.38799 0.63303,-1.19799 0.74193,-1.8 0.10887,-0.60204 0.39174,-1.47714 0.62859,-1.94472 1.12386,-2.2188 1.93977,-5.5407 2.09556,-8.53194 0.20199,-3.87756 -0.11898,-4.86792 -1.57773,-4.86792 -1.7037,0 -5.71071,3.27348 -6.28116,5.13132 -0.12138,0.39528 -0.70197,1.31223 -1.29024,2.03772 -1.70457,2.10213 -3.65715,5.13351 -3.65826,5.67945 0,0.27582 -0.41934,1.51401 -0.93063,2.75151 -1.32153,3.19869 -1.51494,3.82794 -1.79817,5.85 -0.13866,0.99 -0.40656,2.8125 -0.59529,4.05 -0.56808,3.72489 -0.51117,4.78317 0.29229,5.43375 0.3846,0.31143 0.74163,0.56625 0.79335,0.56625 0.0517,0 1.60047,-1.54161 3.4416,-3.42579 z m 151.55874,-28.3935 c 0.60057,-0.27825 1.35672,-1.40859 4.20162,-6.28071 0.3372,-0.5775 0.8661,-1.41579 1.17531,-1.86285 0.30921,-0.44706 0.5622,-1.14786 0.5622,-1.5573 0,-0.40944 0.13758,-0.82947 0.3057,-0.93339 0.16815,-0.10389 0.65985,-0.88812 1.09269,-1.7427 0.43287,-0.85455 1.37529,-2.4132 2.0943,-3.46365 0.71901,-1.05042 1.30731,-2.10204 1.30731,-2.33694 0,-0.57453 1.04058,-2.57922 2.217,-4.27104 0.5286,-0.76017 1.2711,-2.12463 1.65,-3.03213 0.6015,-1.44072 1.89342,-3.94629 3.64887,-7.076787 0.28584,-0.50973 0.59097,-1.58973 0.67806,-2.4 0.0871,-0.81027 0.31638,-2.14821 0.50958,-2.97321 0.63231,-2.70015 0.69132,-4.7964 0.16374,-5.81661 -0.26547,-0.51336 -0.63453,-0.93339 -0.82014,-0.93339 -0.53736,0 -2.89623,2.14884 -8.89875,8.10642 -3.07911,3.05604 -5.93586,6.082497 -6.34836,6.725457 -0.4125,0.64296 -1.71237,2.19255 -2.88858,3.44355 -1.17621,1.25103 -2.36262,2.67957 -2.63646,3.17457 -0.27384,0.495 -0.90087,1.44 -1.39338,2.1 -0.49254,0.66 -1.36488,2.10789 -1.93854,3.2175 -1.03407,2.00016 -1.04292,2.05053 -1.02987,5.85 0.0168,4.88586 0.38079,8.05758 1.00371,8.7459 0.26571,0.29361 0.48312,0.72003 0.48312,0.94758 0,0.22755 0.49989,0.92565 1.11087,1.55136 1.182,1.2105 2.35245,1.46592 3.75,0.81837 z M 425.26617,87.299673 c 1.1829,-1.21992 2.1507,-2.37981 2.1507,-2.57757 0,-0.35403 0.57066,-1.1769 2.15457,-3.10677 0.4425,-0.53916 0.89322,-1.33356 1.00158,-1.76538 0.10839,-0.43179 0.65757,-1.49988 1.22046,-2.37354 0.56286,-0.87366 1.02339,-1.75956 1.02339,-1.96863 0,-0.2091 0.46503,-1.36116 1.03344,-2.56014 1.41201,-2.97855 2.75655,-6.46395 2.98194,-7.72995 0.10281,-0.5775 0.52071,-1.86 0.92865,-2.85 0.40797,-0.99 0.74493,-2.13942 0.74886,-2.55423 0.004,-0.41484 0.27711,-1.49292 0.60711,-2.39577 0.33,-0.90285 0.6,-1.91535 0.6,-2.25 0,-0.33465 0.28635,-1.34907 0.63636,-2.25423 0.35001,-0.90519 0.73386,-2.32077 0.85302,-3.14577 0.11916,-0.825 0.43833,-2.1075 0.70926,-2.85 0.27096,-0.7425 0.49458,-1.79762 0.49698,-2.34472 0.003,-0.5471 0.14832,-1.26367 0.32424,-1.59239 0.17592,-0.32871 0.38343,-1.46734 0.4611,-2.53028 0.11949,-1.63499 0.0669,-1.93261 -0.3417,-1.93261 -0.49029,0 -4.01826,3.5213 -4.03185,4.02422 -0.004,0.15082 -1.71033,1.9953 -3.7917,4.09885 -2.08137,2.10354 -3.93762,4.09152 -4.125,4.41771 -0.18738,0.32622 -1.0452,1.45173 -1.90623,2.50116 -0.86103,1.04943 -2.04552,2.51556 -2.63223,3.25806 -0.58668,0.7425 -1.46844,1.84032 -1.95948,2.4396 -0.49101,0.59928 -0.89277,1.16703 -0.89277,1.26168 0,0.20097 -1.10082,1.84848 -2.0622,3.08634 -2.50293,3.22266 -4.35738,7.33236 -4.92411,10.91238 -0.6726,4.24884 -0.60885,5.75364 0.36606,8.64003 0.95349,2.823 2.2743,5.11359 3.40554,5.90595 0.35652,0.24972 1.13535,0.45402 1.73076,0.45402 0.95187,0 1.3422,-0.26778 3.23325,-2.21802 z m -58.28211,-0.9225 c 0.65055,-0.75972 2.00499,-2.28765 3.00987,-3.3954 1.00491,-1.10775 2.28741,-2.79924 2.85,-3.75891 0.56262,-0.95964 1.45737,-2.44464 1.98837,-3.3 0.53097,-0.85533 1.05588,-1.75767 1.1664,-2.00517 0.11055,-0.2475 0.73578,-1.5975 1.38939,-3 0.65361,-1.4025 1.30473,-3.2925 1.4469,-4.2 0.50112,-3.19827 0.6096,-3.7605 0.93864,-4.86423 0.26937,-0.90363 0.23286,-1.42986 -0.1932,-2.78445 -0.85875,-2.73015 -1.70232,-3.15237 -3.49026,-1.74693 -1.29195,1.01556 -4.79106,4.98297 -5.33085,6.04428 -0.22416,0.44073 -1.13541,1.89645 -2.025,3.23493 -0.88959,1.33851 -1.61745,2.66145 -1.61745,2.93991 0,0.27846 -0.19758,0.88836 -0.43905,1.35531 -0.75888,1.46751 -1.41387,3.41601 -1.67103,4.97118 -0.13644,0.825 -0.41175,2.1075 -0.61179,2.85 -0.20004,0.7425 -0.42021,2.79198 -0.48927,4.55442 -0.0992,2.53128 -0.0249,3.39888 0.3531,4.13004 0.58623,1.13364 1.01481,0.97245 2.72523,-1.02498 z m -118.96719,-2.24235 c -0.2475,-0.13617 -0.79515,-0.4071 -1.21704,-0.60204 -1.33473,-0.61677 -2.98296,-2.33148 -2.98296,-3.10329 0,-0.39534 -0.27,-0.96315 -0.6,-1.2618 -0.52935,-0.47907 -0.6,-0.924 -0.6,-3.7788 0,-1.83357 0.12999,-3.31614 0.3,-3.4212 0.165,-0.10197 0.3,-0.71211 0.3,-1.35582 0,-3.2193 2.42319,-7.44813 4.9584,-8.65314 0.82038,-0.38994 1.72602,-0.82869 2.01252,-0.975 0.7101,-0.36264 3.44961,-0.33735 3.67908,0.034 0.10197,0.165 0.42669,0.3 0.72162,0.3 0.71883,0 2.21337,0.76518 2.83401,1.45098 0.27648,0.30549 0.92208,1.35273 1.43466,2.32722 0.88368,1.67994 0.93081,1.94145 0.90876,5.0439 -0.0132,1.83852 -0.16035,3.4092 -0.33615,3.585 -0.17211,0.17211 -0.3129,0.88542 -0.3129,1.5852 0,0.69975 -0.11727,1.34478 -0.26058,1.43334 -0.14334,0.0886 -0.3438,0.68127 -0.44547,1.31709 -0.10167,0.63582 -0.4569,1.40223 -0.78939,1.70316 -0.33252,0.3009 -0.60456,0.71817 -0.60456,0.92724 0,0.49977 -2.01354,2.20929 -3.59907,3.05559 -1.30338,0.6957 -4.43331,0.92079 -5.40093,0.38841 z"
       style="fill:#ffffff" />
  </g>
</svg>
