<?xml version="1.0" encoding="UTF-8" standalone="no"?>
<svg
   xmlns:dc="http://purl.org/dc/elements/1.1/"
   xmlns:cc="http://creativecommons.org/ns#"
   xmlns:rdf="http://www.w3.org/1999/02/22-rdf-syntax-ns#"
   xmlns:svg="http://www.w3.org/2000/svg"
   xmlns="http://www.w3.org/2000/svg"
   xmlns:sodipodi="http://sodipodi.sourceforge.net/DTD/sodipodi-0.dtd"
   xmlns:inkscape="http://www.inkscape.org/namespaces/inkscape"
   viewBox="0 0 400 400"
   height="400"
   width="400"
   xml:space="preserve"
   version="1.1"
   id="svg2"
   inkscape:version="0.91 r13725"
   sodipodi:docname="hp.svg"><sodipodi:namedview
     pagecolor="#ffffff"
     bordercolor="#666666"
     borderopacity="1"
     objecttolerance="10"
     gridtolerance="10"
     guidetolerance="10"
     inkscape:pageopacity="0"
     inkscape:pageshadow="2"
     inkscape:window-width="1415"
     inkscape:window-height="795"
     id="namedview8"
     showgrid="false"
     inkscape:zoom="0.43703704"
     inkscape:cx="537.71186"
     inkscape:cy="270"
     inkscape:window-x="0"
     inkscape:window-y="0"
     inkscape:window-maximized="0"
     inkscape:current-layer="svg2" /><metadata
     id="metadata8"><rdf:RDF><cc:Work
         rdf:about=""><dc:format>image/svg+xml</dc:format><dc:type
           rdf:resource="http://purl.org/dc/dcmitype/StillImage" /><dc:title></dc:title></cc:Work></rdf:RDF></metadata><defs
     id="defs6" /><g
     transform="matrix(0.88983134,0,0,-0.88983134,7.7964306,392.20401)"
     id="g10"><g
       transform="scale(0.1,0.1)"
       id="g12"><path
         id="path14"
         style="fill:#5483cc;fill-opacity:1;fill-rule:nonzero;stroke:none"
         d="m 3466.92,2820.61 -343.95,0 -481.67,-1321.58 343.96,0 481.66,1321.58 z M 2160,0 c -21.47,0 -42.85,0.390625 -64.19,1.01172 l 441.43,1213.17828 607.5,0 c 106.63,0 223.68,81.97 260.15,182.12 l 478.92,1315.46 c 78.35,215.37 -45.01,391.57 -274.18,391.57 l -842.79,0 -707.15,-1943.16 -0.26,0 L 1658.54,58.6523 C 707.441,284.762 0,1139.73 0,2160 0,3150.86 667.211,3985.8 1576.83,4240.27 l -413.65,-1136.93 -0.12,0 -687.669,-1889.15 457.781,-0.04 584.808,1605.31 344.04,0 -584.81,-1605.31 457.61,-0.08 544.98,1497.7 c 78.4,215.37 -44.97,391.57 -273.93,391.57 l -384.81,0 441.86,1214.4 c 32.21,1.43 64.54,2.27 97.08,2.27 1192.94,0 2160,-967.06 2160,-2160.01 C 4320,967.082 3352.94,0 2160,0"
         inkscape:connector-curvature="0" /></g></g></svg>